<?xml version="1.0" encoding="UTF-8"?>
<svg width="752pt" height="752pt" version="1.1" viewBox="0 0 752 752" xmlns="http://www.w3.org/2000/svg">
 <path d="m251.61 298.43c0-46.402 37.613-84.02 84.02-84.02 46.402 0 84.02 37.617 84.02 84.02 0 46.402-37.617 84.02-84.02 84.02-46.406-0.003906-84.02-37.621-84.02-84.02zm90.848 96.438h-13.656c-75.879 0.39844-137.49 59.266-137.49 131.62 0 6.1406 4.8477 11.109 10.836 11.109h266.96c5.9922 0 10.836-4.9688 10.836-11.109 0-72.359-61.613-131.23-137.48-131.62zm190.09-23.957 0.29297-0.62109 25.059-6.0156c1.9141-7.4883 2.8555-15.184 2.8047-22.887-0.003906-0.95703-0.039062-1.9102-0.070312-2.8555l-23.223-11.156-0.15234-0.67188c-0.64062-2.8047-1.4453-5.5547-2.3906-8.1641l-0.23828-0.64844 13.461-21.961c-4.4414-7.4883-9.9023-14.254-16.254-20.145l-24.324 8.5273-0.58203-0.37109c-2.4453-1.5391-4.957-2.918-7.4648-4.0898l-0.625-0.29297-6.0039-25.059c-7.3203-1.8672-14.832-2.8086-22.348-2.8086h-0.55078c-0.95313 0.003906-1.8984 0.03125-2.8398 0.074219l-11.164 23.219-0.67188 0.15625c-2.793 0.63281-5.5391 1.4414-8.168 2.3906l-0.64844 0.23828-4.543-2.7852c1.668 7.5586 2.6094 15.383 2.6094 23.434 0 5.8008-0.61719 11.453-1.4922 17.012 7.0469-7.4336 16.949-12.133 27.973-12.133 21.316 0 38.66 17.344 38.66 38.66 0 21.305-17.344 38.641-38.66 38.641-19.527 0-35.547-14.598-38.125-33.414-6.8242 13.555-16.324 25.535-27.906 35.125 26.508 10.773 49.402 28.121 66.602 49.824 0.77344-0.015625 1.5469-0.03125 2.3203-0.0625l11.156-23.211 0.67188-0.15625c2.8086-0.64453 5.5664-1.4492 8.1797-2.4023l0.64844-0.23828 21.949 13.469c7.4844-4.4531 14.254-9.9219 20.145-16.266l-8.5352-24.324 0.37109-0.58203c1.5312-2.4297 2.9023-4.9414 4.0781-7.4492z"/>
</svg>
